TITLE ""
FILE "2Q_t_0353-0370.mp3" MP3
  TRACK 01 AUDIO
    TITLE "2Q_t_0353-0370_01"
    INDEX 01 00:00:00
  TRACK 02 AUDIO
    TITLE "2Q_t_0353-0370_02"
    INDEX 01 00:00:12
  TRACK 03 AUDIO
    TITLE "2Q_t_0353-0370_03"
    INDEX 01 00:01:65
  TRACK 04 AUDIO
    TITLE "2Q_t_0353-0370_04"
    INDEX 01 00:02:39
  TRACK 05 AUDIO
    TITLE "2Q_t_0353-0370_05"
    INDEX 01 00:04:20
  TRACK 06 AUDIO
    TITLE "2Q_t_0353-0370_06"
    INDEX 01 00:04:63
  TRACK 07 AUDIO
    TITLE "2Q_t_0353-0370_07"
    INDEX 01 00:05:68
  TRACK 08 AUDIO
    TITLE "2Q_t_0353-0370_08"
    INDEX 01 00:06:40
  TRACK 09 AUDIO
    TITLE "2Q_t_0353-0370_09"
    INDEX 01 00:08:43
  TRACK 10 AUDIO
    TITLE "2Q_t_0353-0370_10"
    INDEX 01 00:09:11
  TRACK 11 AUDIO
    TITLE "2Q_t_0353-0370_11"
    INDEX 01 00:10:34
  TRACK 12 AUDIO
    TITLE "2Q_t_0353-0370_12"
    INDEX 01 00:11:04
  TRACK 13 AUDIO
    TITLE "2Q_t_0353-0370_13"
    INDEX 01 00:12:12
  TRACK 14 AUDIO
    TITLE "2Q_t_0353-0370_14"
    INDEX 01 00:12:55
  TRACK 15 AUDIO
    TITLE "2Q_t_0353-0370_15"
    INDEX 01 00:14:07
  TRACK 16 AUDIO
    TITLE "2Q_t_0353-0370_16"
    INDEX 01 00:14:50
  TRACK 17 AUDIO
    TITLE "2Q_t_0353-0370_17"
    INDEX 01 00:15:57
  TRACK 18 AUDIO
    TITLE "2Q_t_0353-0370_18"
    INDEX 01 00:16:25
  TRACK 19 AUDIO
    TITLE "2Q_t_0353-0370_19"
    INDEX 01 00:17:56
  TRACK 20 AUDIO
    TITLE "2Q_t_0353-0370_20"
    INDEX 01 00:18:30
  TRACK 21 AUDIO
    TITLE "2Q_t_0353-0370_21"
    INDEX 01 00:19:51
  TRACK 22 AUDIO
    TITLE "2Q_t_0353-0370_22"
    INDEX 01 00:20:21
  TRACK 23 AUDIO
    TITLE "2Q_t_0353-0370_23"
    INDEX 01 00:21:40
  TRACK 24 AUDIO
    TITLE "2Q_t_0353-0370_24"
    INDEX 01 00:22:10
  TRACK 25 AUDIO
    TITLE "2Q_t_0353-0370_25"
    INDEX 01 00:23:25
  TRACK 26 AUDIO
    TITLE "2Q_t_0353-0370_26"
    INDEX 01 00:23:70
  TRACK 27 AUDIO
    TITLE "2Q_t_0353-0370_27"
    INDEX 01 00:25:06
  TRACK 28 AUDIO
    TITLE "2Q_t_0353-0370_28"
    INDEX 01 00:25:55
  TRACK 29 AUDIO
    TITLE "2Q_t_0353-0370_29"
    INDEX 01 00:26:72
  TRACK 30 AUDIO
    TITLE "2Q_t_0353-0370_30"
    INDEX 01 00:27:40
  TRACK 31 AUDIO
    TITLE "2Q_t_0353-0370_31"
    INDEX 01 00:28:69
  TRACK 32 AUDIO
    TITLE "2Q_t_0353-0370_32"
    INDEX 01 00:29:45
  TRACK 33 AUDIO
    TITLE "2Q_t_0353-0370_33"
    INDEX 01 00:32:51
  TRACK 34 AUDIO
    TITLE "2Q_t_0353-0370_34"
    INDEX 01 00:33:22
  TRACK 35 AUDIO
    TITLE "2Q_t_0353-0370_35"
    INDEX 01 00:34:15
  TRACK 36 AUDIO
    TITLE "2Q_t_0353-0370_36"
    INDEX 01 00:34:74
  TRACK 37 AUDIO
    TITLE "2Q_t_0353-0370_37"
    INDEX 01 00:37:31
  TRACK 38 AUDIO
    TITLE "2Q_t_0353-0370_38"
    INDEX 01 00:38:01
  TRACK 39 AUDIO
    TITLE "2Q_t_0353-0370_39"
    INDEX 01 00:39:06
  TRACK 40 AUDIO
    TITLE "2Q_t_0353-0370_40"
    INDEX 01 00:39:51
  TRACK 41 AUDIO
    TITLE "2Q_t_0353-0370_41"
    INDEX 01 00:41:48
  TRACK 42 AUDIO
    TITLE "2Q_t_0353-0370_42"
    INDEX 01 00:42:19
  TRACK 43 AUDIO
    TITLE "2Q_t_0353-0370_43"
    INDEX 01 00:43:28
  TRACK 44 AUDIO
    TITLE "2Q_t_0353-0370_44"
    INDEX 01 00:44:04
  TRACK 45 AUDIO
    TITLE "2Q_t_0353-0370_45"
    INDEX 01 00:47:35
  TRACK 46 AUDIO
    TITLE "2Q_t_0353-0370_46"
    INDEX 01 00:48:05
  TRACK 47 AUDIO
    TITLE "2Q_t_0353-0370_47"
    INDEX 01 00:49:28
  TRACK 48 AUDIO
    TITLE "2Q_t_0353-0370_48"
    INDEX 01 00:49:75
  TRACK 49 AUDIO
    TITLE "2Q_t_0353-0370_49"
    INDEX 01 00:52:17
  TRACK 50 AUDIO
    TITLE "2Q_t_0353-0370_50"
    INDEX 01 00:52:60
  TRACK 51 AUDIO
    TITLE "2Q_t_0353-0370_51"
    INDEX 01 00:54:22
  TRACK 52 AUDIO
    TITLE "2Q_t_0353-0370_52"
    INDEX 01 00:54:67
  TRACK 53 AUDIO
    TITLE "2Q_t_0353-0370_53"
    INDEX 01 00:57:38
  TRACK 54 AUDIO
    TITLE "2Q_t_0353-0370_54"
    INDEX 01 00:58:08
  TRACK 55 AUDIO
    TITLE "2Q_t_0353-0370_55"
    INDEX 01 00:59:42
  TRACK 56 AUDIO
    TITLE "2Q_t_0353-0370_56"
    INDEX 01 01:00:14
  TRACK 57 AUDIO
    TITLE "2Q_t_0353-0370_57"
    INDEX 01 01:03:46
  TRACK 58 AUDIO
    TITLE "2Q_t_0353-0370_58"
    INDEX 01 01:04:18
  TRACK 59 AUDIO
    TITLE "2Q_t_0353-0370_59"
    INDEX 01 01:05:29
  TRACK 60 AUDIO
    TITLE "2Q_t_0353-0370_60"
    INDEX 01 01:06:03
  TRACK 61 AUDIO
    TITLE "2Q_t_0353-0370_61"
    INDEX 01 01:10:17
  TRACK 62 AUDIO
    TITLE "2Q_t_0353-0370_62"
    INDEX 01 01:10:60
  TRACK 63 AUDIO
    TITLE "2Q_t_0353-0370_63"
    INDEX 01 01:12:08
  TRACK 64 AUDIO
    TITLE "2Q_t_0353-0370_64"
    INDEX 01 01:12:51
  TRACK 65 AUDIO
    TITLE "2Q_t_0353-0370_65"
    INDEX 01 01:16:43
  TRACK 66 AUDIO
    TITLE "2Q_t_0353-0370_66"
    INDEX 01 01:17:11
  TRACK 67 AUDIO
    TITLE "2Q_t_0353-0370_67"
    INDEX 01 01:18:42
  TRACK 68 AUDIO
    TITLE "2Q_t_0353-0370_68"
    INDEX 01 01:19:22
  TRACK 69 AUDIO
    TITLE "2Q_t_0353-0370_69"
    INDEX 01 01:21:58
  TRACK 70 AUDIO
    TITLE "2Q_t_0353-0370_70"
    INDEX 01 01:22:28
  TRACK 71 AUDIO
    TITLE "2Q_t_0353-0370_71"
    INDEX 01 01:23:39
  TRACK 72 AUDIO
    TITLE "2Q_t_0353-0370_72"
    INDEX 01 01:24:19
  TRACK 73 AUDIO
    TITLE "2Q_t_0353-0370_73"
    INDEX 01 01:26:22
